<?xml version="1.0" encoding="UTF-8" standalone="no"?>
<!DOCTYPE svg PUBLIC "-//W3C//DTD SVG 1.1//EN" "http://www.w3.org/Graphics/SVG/1.1/DTD/svg11.dtd">
<svg width="100%" height="100%" viewBox="0 0 201 165" version="1.1" xmlns="http://www.w3.org/2000/svg" xmlns:xlink="http://www.w3.org/1999/xlink" xml:space="preserve" xmlns:serif="http://www.serif.com/" style="fill-rule:evenodd;clip-rule:evenodd;stroke-linecap:round;stroke-linejoin:round;stroke-miterlimit:1.5;">
    <g transform="matrix(1,0,0,1,-349.84,-698.898)">
        <g opacity="0.3">
            <g transform="matrix(0.868551,0,0,0.609439,46.1705,291.597)">
                <clipPath id="_clip1">
                    <rect x="350.491" y="669.553" width="228.95" height="211.817"/>
                </clipPath>
                <g clip-path="url(#_clip1)">
                    <path d="M579.441,684.142L579.441,883.914C579.441,891.966 574.854,898.503 569.204,898.503L360.728,898.503C355.078,898.503 350.491,891.966 350.491,883.914L350.491,684.142C350.491,676.09 355.078,669.553 360.728,669.553L569.204,669.553C574.854,669.553 579.441,676.09 579.441,684.142Z" style="fill:rgb(101,114,124);stroke:white;stroke-width:2px;"/>
                </g>
            </g>
            <g transform="matrix(0.868551,0,0,0.298308,46.1705,594.856)">
                <clipPath id="_clip2">
                    <rect x="350.491" y="784.028" width="228.95" height="114.475"/>
                </clipPath>
                <g clip-path="url(#_clip2)">
                    <path d="M579.441,684.142L579.441,883.914C579.441,891.966 577.196,898.503 574.431,898.503L355.502,898.503C352.736,898.503 350.491,891.966 350.491,883.914L350.491,684.142C350.491,676.09 352.736,669.553 355.502,669.553L574.431,669.553C577.196,669.553 579.441,676.09 579.441,684.142Z" style="fill:rgb(30,33,41);fill-opacity:0.53;stroke:white;stroke-width:2.31px;"/>
                </g>
            </g>
        </g>
    </g>
</svg>
