<?xml version="1.0" encoding="UTF-8" standalone="no"?>
<!DOCTYPE svg PUBLIC "-//W3C//DTD SVG 1.1//EN" "http://www.w3.org/Graphics/SVG/1.1/DTD/svg11.dtd">
<svg width="100%" height="100%" viewBox="0 0 670 438" version="1.1" xmlns="http://www.w3.org/2000/svg" xmlns:xlink="http://www.w3.org/1999/xlink" xml:space="preserve" xmlns:serif="http://www.serif.com/" style="fill-rule:evenodd;clip-rule:evenodd;stroke-linecap:round;stroke-linejoin:round;stroke-miterlimit:1.5;">
    <g transform="matrix(1,0,0,1,-349.84,-698.898)">
        <g transform="matrix(0.868551,0,0,0.609439,46.1705,291.597)">
            <clipPath id="_clip1">
                <rect x="350.491" y="669.553" width="228.95" height="211.817"/>
            </clipPath>
            <g clip-path="url(#_clip1)">
                <path d="M579.441,684.142L579.441,883.914C579.441,891.966 574.854,898.503 569.204,898.503L360.728,898.503C355.078,898.503 350.491,891.966 350.491,883.914L350.491,684.142C350.491,676.09 355.078,669.553 360.728,669.553L569.204,669.553C574.854,669.553 579.441,676.09 579.441,684.142Z" style="fill:rgb(101,114,124);stroke:white;stroke-width:2px;"/>
            </g>
        </g>
        <g transform="matrix(0.868551,0,0,0.609439,46.1705,528.305)">
            <clipPath id="_clip2">
                <rect x="350.491" y="669.553" width="228.95" height="211.817"/>
            </clipPath>
            <g clip-path="url(#_clip2)">
                <path d="M579.441,684.142L579.441,883.914C579.441,891.966 574.854,898.503 569.204,898.503L360.728,898.503C355.078,898.503 350.491,891.966 350.491,883.914L350.491,684.142C350.491,676.09 355.078,669.553 360.728,669.553L569.204,669.553C574.854,669.553 579.441,676.09 579.441,684.142Z" style="fill:rgb(101,114,124);stroke:white;stroke-width:2px;"/>
            </g>
        </g>
        <g transform="matrix(0.868551,0,0,0.609439,46.1705,350.921)">
            <clipPath id="_clip3">
                <rect x="350.491" y="784.028" width="228.95" height="114.475"/>
            </clipPath>
            <g clip-path="url(#_clip3)">
                <path d="M579.441,684.142L579.441,883.914C579.441,891.966 574.854,898.503 569.204,898.503L360.728,898.503C355.078,898.503 350.491,891.966 350.491,883.914L350.491,684.142C350.491,676.09 355.078,669.553 360.728,669.553L569.204,669.553C574.854,669.553 579.441,676.09 579.441,684.142Z" style="fill:rgb(30,33,41);fill-opacity:0.53;stroke:white;stroke-width:2px;"/>
            </g>
        </g>
        <g transform="matrix(0.868551,0,0,0.609439,46.1705,587.629)">
            <clipPath id="_clip4">
                <rect x="350.491" y="784.028" width="228.95" height="114.475"/>
            </clipPath>
            <g clip-path="url(#_clip4)">
                <path d="M579.441,684.142L579.441,883.914C579.441,891.966 574.854,898.503 569.204,898.503L360.728,898.503C355.078,898.503 350.491,891.966 350.491,883.914L350.491,684.142C350.491,676.09 355.078,669.553 360.728,669.553L569.204,669.553C574.854,669.553 579.441,676.09 579.441,684.142Z" style="fill:rgb(30,33,41);fill-opacity:0.53;stroke:white;stroke-width:2px;"/>
            </g>
        </g>
        <g transform="matrix(0.868551,0,0,0.609439,280.78,291.597)">
            <clipPath id="_clip5">
                <rect x="350.491" y="669.553" width="228.95" height="211.817"/>
            </clipPath>
            <g clip-path="url(#_clip5)">
                <path d="M579.441,684.142L579.441,883.914C579.441,891.966 574.854,898.503 569.204,898.503L360.728,898.503C355.078,898.503 350.491,891.966 350.491,883.914L350.491,684.142C350.491,676.09 355.078,669.553 360.728,669.553L569.204,669.553C574.854,669.553 579.441,676.09 579.441,684.142Z" style="fill:rgb(101,114,124);stroke:white;stroke-width:2px;"/>
            </g>
        </g>
        <g transform="matrix(0.868551,0,0,0.609439,280.78,528.305)">
            <clipPath id="_clip6">
                <rect x="350.491" y="669.553" width="228.95" height="211.817"/>
            </clipPath>
            <g clip-path="url(#_clip6)">
                <path d="M579.441,684.142L579.441,883.914C579.441,891.966 574.854,898.503 569.204,898.503L360.728,898.503C355.078,898.503 350.491,891.966 350.491,883.914L350.491,684.142C350.491,676.09 355.078,669.553 360.728,669.553L569.204,669.553C574.854,669.553 579.441,676.09 579.441,684.142Z" style="fill:rgb(101,114,124);stroke:white;stroke-width:2px;"/>
            </g>
        </g>
        <g transform="matrix(0.868551,0,0,0.609439,280.78,350.921)">
            <clipPath id="_clip7">
                <rect x="350.491" y="784.028" width="228.95" height="114.475"/>
            </clipPath>
            <g clip-path="url(#_clip7)">
                <path d="M579.441,684.142L579.441,883.914C579.441,891.966 574.854,898.503 569.204,898.503L360.728,898.503C355.078,898.503 350.491,891.966 350.491,883.914L350.491,684.142C350.491,676.09 355.078,669.553 360.728,669.553L569.204,669.553C574.854,669.553 579.441,676.09 579.441,684.142Z" style="fill:rgb(30,33,41);fill-opacity:0.53;stroke:white;stroke-width:2px;"/>
            </g>
        </g>
        <g transform="matrix(0.868551,0,0,0.609439,280.78,587.629)">
            <clipPath id="_clip8">
                <rect x="350.491" y="784.028" width="228.95" height="114.475"/>
            </clipPath>
            <g clip-path="url(#_clip8)">
                <path d="M579.441,684.142L579.441,883.914C579.441,891.966 574.854,898.503 569.204,898.503L360.728,898.503C355.078,898.503 350.491,891.966 350.491,883.914L350.491,684.142C350.491,676.09 355.078,669.553 360.728,669.553L569.204,669.553C574.854,669.553 579.441,676.09 579.441,684.142Z" style="fill:rgb(30,33,41);fill-opacity:0.53;stroke:white;stroke-width:2px;"/>
            </g>
        </g>
        <g transform="matrix(0.868551,0,0,0.609439,515.39,291.597)">
            <clipPath id="_clip9">
                <rect x="350.491" y="669.553" width="228.95" height="211.817"/>
            </clipPath>
            <g clip-path="url(#_clip9)">
                <path d="M579.441,684.142L579.441,883.914C579.441,891.966 574.854,898.503 569.204,898.503L360.728,898.503C355.078,898.503 350.491,891.966 350.491,883.914L350.491,684.142C350.491,676.09 355.078,669.553 360.728,669.553L569.204,669.553C574.854,669.553 579.441,676.09 579.441,684.142Z" style="fill:rgb(101,114,124);stroke:white;stroke-width:2px;"/>
            </g>
        </g>
        <g transform="matrix(0.868551,0,0,0.609439,515.39,528.305)">
            <clipPath id="_clip10">
                <rect x="350.491" y="669.553" width="228.95" height="211.817"/>
            </clipPath>
            <g clip-path="url(#_clip10)">
                <path d="M579.441,684.142L579.441,883.914C579.441,891.966 574.854,898.503 569.204,898.503L360.728,898.503C355.078,898.503 350.491,891.966 350.491,883.914L350.491,684.142C350.491,676.09 355.078,669.553 360.728,669.553L569.204,669.553C574.854,669.553 579.441,676.09 579.441,684.142Z" style="fill:rgb(101,114,124);stroke:white;stroke-width:2px;"/>
            </g>
        </g>
        <g transform="matrix(0.868551,0,0,0.609439,515.39,350.921)">
            <clipPath id="_clip11">
                <rect x="350.491" y="784.028" width="228.95" height="114.475"/>
            </clipPath>
            <g clip-path="url(#_clip11)">
                <path d="M579.441,684.142L579.441,883.914C579.441,891.966 574.854,898.503 569.204,898.503L360.728,898.503C355.078,898.503 350.491,891.966 350.491,883.914L350.491,684.142C350.491,676.09 355.078,669.553 360.728,669.553L569.204,669.553C574.854,669.553 579.441,676.09 579.441,684.142Z" style="fill:rgb(30,33,41);fill-opacity:0.53;stroke:white;stroke-width:2px;"/>
            </g>
        </g>
        <g transform="matrix(0.868551,0,0,0.609439,515.39,587.629)">
            <clipPath id="_clip12">
                <rect x="350.491" y="784.028" width="228.95" height="114.475"/>
            </clipPath>
            <g clip-path="url(#_clip12)">
                <path d="M579.441,684.142L579.441,883.914C579.441,891.966 574.854,898.503 569.204,898.503L360.728,898.503C355.078,898.503 350.491,891.966 350.491,883.914L350.491,684.142C350.491,676.09 355.078,669.553 360.728,669.553L569.204,669.553C574.854,669.553 579.441,676.09 579.441,684.142Z" style="fill:rgb(30,33,41);fill-opacity:0.53;stroke:white;stroke-width:2px;"/>
            </g>
        </g>
        <g transform="matrix(1,0,0,1,0,42.3677)">
            <g transform="matrix(1,0,0,1,34.6037,11.9336)">
                <circle cx="371.114" cy="805.815" r="3.504" style="fill:rgb(247,223,30);fill-opacity:0.98;stroke:rgb(247,223,30);stroke-width:1.5px;"/>
            </g>
            <g transform="matrix(1,0,0,1,269.214,15.4375)">
                <circle cx="371.114" cy="805.815" r="3.504" style="fill:rgb(247,223,30);fill-opacity:0.98;stroke:rgb(247,223,30);stroke-width:1.5px;"/>
            </g>
            <g transform="matrix(1,0,0,1,503.824,11.9336)">
                <circle cx="371.114" cy="805.815" r="3.504" style="fill:rgb(247,223,30);fill-opacity:0.98;stroke:rgb(247,223,30);stroke-width:1.5px;"/>
            </g>
            <g transform="matrix(1,0,0,1,34.6037,252.146)">
                <circle cx="371.114" cy="805.815" r="3.504" style="fill:rgb(247,223,30);fill-opacity:0.98;stroke:rgb(247,223,30);stroke-width:1.5px;"/>
            </g>
            <g transform="matrix(1,0,0,1,269.214,252.146)">
                <circle cx="371.114" cy="805.815" r="3.504" style="fill:rgb(247,223,30);fill-opacity:0.98;stroke:rgb(247,223,30);stroke-width:1.5px;"/>
            </g>
            <g transform="matrix(1,0,0,1,503.824,252.146)">
                <circle cx="371.114" cy="805.815" r="3.504" style="fill:rgb(247,223,30);fill-opacity:0.98;stroke:rgb(247,223,30);stroke-width:1.5px;"/>
            </g>
            <g transform="matrix(1,0,0,1,78.2849,11.9336)">
                <circle cx="371.114" cy="805.815" r="3.504" style="fill:rgb(41,187,251);fill-opacity:0.98;stroke:rgb(41,187,251);stroke-width:1.5px;"/>
            </g>
            <g transform="matrix(1,0,0,1,312.895,15.4375)">
                <circle cx="371.114" cy="805.815" r="3.504" style="fill:rgb(41,187,251);fill-opacity:0.98;stroke:rgb(41,187,251);stroke-width:1.5px;"/>
            </g>
            <g transform="matrix(1,0,0,1,547.505,11.9336)">
                <circle cx="371.114" cy="805.815" r="3.504" style="fill:rgb(41,187,251);fill-opacity:0.98;stroke:rgb(41,187,251);stroke-width:1.5px;"/>
            </g>
            <g transform="matrix(1,0,0,1,78.2849,252.146)">
                <circle cx="371.114" cy="805.815" r="3.504" style="fill:rgb(41,187,251);fill-opacity:0.98;stroke:rgb(41,187,251);stroke-width:1.5px;"/>
            </g>
            <g transform="matrix(1,0,0,1,312.895,252.146)">
                <circle cx="371.114" cy="805.815" r="3.504" style="fill:rgb(41,187,251);fill-opacity:0.98;stroke:rgb(41,187,251);stroke-width:1.5px;"/>
            </g>
            <g transform="matrix(1,0,0,1,547.505,252.146)">
                <circle cx="371.114" cy="805.815" r="3.504" style="fill:rgb(41,187,251);fill-opacity:0.98;stroke:rgb(41,187,251);stroke-width:1.5px;"/>
            </g>
            <g transform="matrix(1,0,0,1,123.203,11.9336)">
                <circle cx="371.114" cy="805.815" r="3.504" style="fill:rgb(251,41,71);fill-opacity:0.98;stroke:rgb(251,41,71);stroke-width:1.5px;"/>
            </g>
            <g transform="matrix(1,0,0,1,357.813,15.4375)">
                <circle cx="371.114" cy="805.815" r="3.504" style="fill:rgb(251,41,71);fill-opacity:0.98;stroke:rgb(251,41,71);stroke-width:1.5px;"/>
            </g>
            <g transform="matrix(1,0,0,1,592.423,11.9336)">
                <circle cx="371.114" cy="805.815" r="3.504" style="fill:rgb(251,41,71);fill-opacity:0.98;stroke:rgb(251,41,71);stroke-width:1.5px;"/>
            </g>
            <g transform="matrix(1,0,0,1,123.203,252.146)">
                <circle cx="371.114" cy="805.815" r="3.504" style="fill:rgb(251,41,71);fill-opacity:0.98;stroke:rgb(251,41,71);stroke-width:1.5px;"/>
            </g>
            <g transform="matrix(1,0,0,1,357.813,252.146)">
                <circle cx="371.114" cy="805.815" r="3.504" style="fill:rgb(251,41,71);fill-opacity:0.98;stroke:rgb(251,41,71);stroke-width:1.5px;"/>
            </g>
            <g transform="matrix(1,0,0,1,592.423,252.146)">
                <circle cx="371.114" cy="805.815" r="3.504" style="fill:rgb(251,41,71);fill-opacity:0.98;stroke:rgb(251,41,71);stroke-width:1.5px;"/>
            </g>
        </g>
    </g>
</svg>
