<?xml version="1.0" encoding="UTF-8" standalone="no"?>
<!DOCTYPE svg PUBLIC "-//W3C//DTD SVG 1.1//EN" "http://www.w3.org/Graphics/SVG/1.1/DTD/svg11.dtd">
<svg width="100%" height="100%" viewBox="0 0 684 62" version="1.1" xmlns="http://www.w3.org/2000/svg" xmlns:xlink="http://www.w3.org/1999/xlink" xml:space="preserve" xmlns:serif="http://www.serif.com/" style="fill-rule:evenodd;clip-rule:evenodd;stroke-linecap:round;stroke-linejoin:round;stroke-miterlimit:1.5;">
    <g transform="matrix(1,0,0,1,-550.25,-429.203)">
        <g transform="matrix(0.951738,0,0,0.951738,690.81,489.842)">
            <rect x="0" y="-62.926" width="2.814" height="62.926" style="fill:rgb(240,75,84);"/>
        </g>
        <g transform="matrix(0.951738,0,0,0.951738,724.817,455.642)">
            <path d="M0,-20.873L0.23,-15.977L-0.354,-15.977C-0.468,-16.84 -0.621,-17.455 -0.815,-17.824C-1.133,-18.42 -1.558,-18.858 -2.087,-19.141C-2.614,-19.424 -3.31,-19.565 -4.172,-19.565L-7.111,-19.565L-7.111,-3.617C-7.111,-2.335 -6.972,-1.534 -6.695,-1.216C-6.305,-0.786 -5.706,-0.57 -4.895,-0.57L-4.172,-0.57L-4.172,0L-13.022,0L-13.022,-0.57L-12.283,-0.57C-11.401,-0.57 -10.774,-0.836 -10.404,-1.37C-10.179,-1.698 -10.067,-2.447 -10.067,-3.617L-10.067,-19.565L-12.575,-19.565C-13.549,-19.565 -14.243,-19.493 -14.652,-19.35C-15.187,-19.154 -15.643,-18.78 -16.022,-18.226C-16.402,-17.671 -16.629,-16.922 -16.701,-15.977L-17.285,-15.977L-17.038,-20.873L0,-20.873Z" style="fill:white;fill-rule:nonzero;"/>
        </g>
        <g transform="matrix(0.951738,0,0,0.951738,726.88,451.438)">
            <path d="M0,-5.266L6.526,-5.266C6.475,-6.169 6.368,-6.805 6.205,-7.174C5.948,-7.749 5.566,-8.201 5.058,-8.529C4.55,-8.857 4.018,-9.021 3.465,-9.021C2.612,-9.021 1.851,-8.69 1.179,-8.029C0.506,-7.367 0.114,-6.445 0,-5.266M0,-4.373C-0.008,-2.28 0.498,-0.637 1.525,0.553C2.55,1.744 3.756,2.338 5.141,2.338C6.064,2.338 6.868,2.085 7.552,1.577C8.233,1.069 8.806,0.199 9.268,-1.033L9.745,-0.725C9.528,0.681 8.904,1.962 7.867,3.115C6.829,4.27 5.533,4.848 3.973,4.848C2.28,4.848 0.829,4.188 -0.374,2.87C-1.582,1.55 -2.185,-0.222 -2.185,-2.45C-2.185,-4.86 -1.565,-6.741 -0.331,-8.09C0.905,-9.44 2.458,-10.114 4.327,-10.114C5.907,-10.114 7.204,-9.593 8.221,-8.552C9.236,-7.51 9.745,-6.118 9.745,-4.373L0,-4.373Z" style="fill:white;fill-rule:nonzero;"/>
        </g>
        <g transform="matrix(0.951738,0,0,0.951738,749.341,447.337)">
            <path d="M0,3.37C-0.381,5.227 -1.123,6.656 -2.231,7.656C-3.34,8.656 -4.566,9.158 -5.909,9.158C-7.511,9.158 -8.907,8.486 -10.098,7.141C-11.289,5.797 -11.883,3.98 -11.883,1.692C-11.883,-0.525 -11.224,-2.325 -9.905,-3.711C-8.586,-5.097 -7.005,-5.788 -5.156,-5.788C-3.771,-5.788 -2.631,-5.422 -1.739,-4.689C-0.847,-3.955 -0.4,-3.192 -0.4,-2.401C-0.4,-2.013 -0.525,-1.697 -0.778,-1.456C-1.029,-1.216 -1.381,-1.094 -1.831,-1.094C-2.438,-1.094 -2.895,-1.29 -3.202,-1.68C-3.377,-1.895 -3.492,-2.305 -3.549,-2.911C-3.605,-3.516 -3.813,-3.977 -4.172,-4.296C-4.531,-4.604 -5.03,-4.758 -5.665,-4.758C-6.691,-4.758 -7.518,-4.378 -8.145,-3.618C-8.973,-2.612 -9.39,-1.283 -9.39,0.369C-9.39,2.051 -8.976,3.536 -8.151,4.824C-7.324,6.112 -6.208,6.756 -4.802,6.756C-3.799,6.756 -2.895,6.412 -2.094,5.724C-1.528,5.253 -0.981,4.395 -0.446,3.154L0,3.37Z" style="fill:white;fill-rule:nonzero;"/>
        </g>
        <g transform="matrix(0.951738,0,0,0.951738,755.172,452.801)">
            <path d="M0,-8.544C1.653,-10.534 3.229,-11.529 4.727,-11.529C5.496,-11.529 6.156,-11.338 6.712,-10.952C7.266,-10.567 7.706,-9.935 8.034,-9.053C8.262,-8.437 8.374,-7.492 8.374,-6.22L8.374,-0.201C8.374,0.691 8.445,1.297 8.59,1.615C8.702,1.872 8.884,2.072 9.135,2.215C9.388,2.359 9.853,2.431 10.529,2.431L10.529,2.985L3.557,2.985L3.557,2.431L3.849,2.431C4.506,2.431 4.963,2.331 5.227,2.131C5.487,1.93 5.67,1.636 5.773,1.246C5.814,1.092 5.834,0.61 5.834,-0.201L5.834,-5.974C5.834,-7.257 5.667,-8.187 5.334,-8.768C5,-9.348 4.438,-9.637 3.647,-9.637C2.427,-9.637 1.212,-8.97 0,-7.636L0,-0.201C0,0.754 0.057,1.343 0.171,1.568C0.314,1.867 0.511,2.085 0.762,2.224C1.014,2.361 1.524,2.431 2.293,2.431L2.293,2.985L-4.678,2.985L-4.678,2.431L-4.371,2.431C-3.653,2.431 -3.167,2.248 -2.918,1.885C-2.664,1.52 -2.539,0.824 -2.539,-0.201L-2.539,-5.435C-2.539,-7.128 -2.578,-8.159 -2.654,-8.529C-2.731,-8.898 -2.85,-9.149 -3.009,-9.283C-3.167,-9.416 -3.38,-9.483 -3.648,-9.483C-3.936,-9.483 -4.278,-9.405 -4.678,-9.252L-4.91,-9.807L-0.66,-11.529L0,-11.529L0,-8.544Z" style="fill:white;fill-rule:nonzero;"/>
        </g>
        <g transform="matrix(0.951738,0,0,0.951738,772.37,455.101)">
            <path d="M0,-12.946C-0.543,-12.946 -1.091,-12.785 -1.639,-12.462C-2.188,-12.138 -2.631,-11.571 -2.97,-10.76C-3.308,-9.95 -3.478,-8.908 -3.478,-7.635C-3.478,-5.583 -3.07,-3.813 -2.255,-2.325C-1.437,-0.838 -0.364,-0.094 0.972,-0.094C1.966,-0.094 2.788,-0.505 3.435,-1.325C4.079,-2.145 4.403,-3.556 4.403,-5.558C4.403,-8.061 3.865,-10.032 2.788,-11.469C2.059,-12.454 1.131,-12.946 0,-12.946M0.479,-13.946C2.613,-13.946 4.328,-13.136 5.619,-11.514C6.718,-10.13 7.267,-8.539 7.267,-6.743C7.267,-5.481 6.964,-4.203 6.358,-2.91C5.753,-1.617 4.919,-0.641 3.856,0.014C2.795,0.671 1.612,1 0.308,1C-1.815,1 -3.503,0.153 -4.755,-1.541C-5.812,-2.967 -6.34,-4.567 -6.34,-6.343C-6.34,-7.635 -6.021,-8.922 -5.379,-10.2C-4.737,-11.476 -3.895,-12.421 -2.848,-13.031C-1.8,-13.641 -0.692,-13.946 0.479,-13.946" style="fill:white;fill-rule:nonzero;"/>
        </g>
        <g transform="matrix(0.951738,0,0,0.951738,785.879,455.642)">
            <path d="M0,-21.889L0,-3.187C0,-2.304 0.062,-1.719 0.191,-1.432C0.319,-1.146 0.517,-0.927 0.784,-0.778C1.05,-0.629 1.547,-0.555 2.276,-0.555L2.276,0L-4.635,0L-4.635,-0.555C-3.987,-0.555 -3.547,-0.622 -3.311,-0.754C-3.074,-0.888 -2.89,-1.11 -2.757,-1.417C-2.624,-1.725 -2.557,-2.315 -2.557,-3.187L-2.557,-15.993C-2.557,-17.584 -2.593,-18.562 -2.665,-18.927C-2.737,-19.29 -2.852,-19.539 -3.011,-19.672C-3.171,-19.806 -3.372,-19.872 -3.618,-19.872C-3.886,-19.872 -4.224,-19.79 -4.635,-19.626L-4.896,-20.165L-0.693,-21.889L0,-21.889Z" style="fill:white;fill-rule:nonzero;"/>
        </g>
        <g transform="matrix(0.951738,0,0,0.951738,799.254,456.053)">
            <path d="M0,-21.828L-4.54,-16.516L-5.063,-16.516L-3.447,-21.828L0,-21.828ZM-3.725,-13.946C-4.269,-13.946 -4.815,-13.785 -5.364,-13.462C-5.914,-13.139 -6.356,-12.571 -6.694,-11.761C-7.034,-10.95 -7.203,-9.908 -7.203,-8.636C-7.203,-6.583 -6.796,-4.813 -5.979,-3.325C-5.164,-1.838 -4.089,-1.095 -2.754,-1.095C-1.76,-1.095 -0.938,-1.505 -0.291,-2.325C0.354,-3.145 0.678,-4.557 0.678,-6.558C0.678,-9.061 0.14,-11.032 -0.938,-12.47C-1.669,-13.454 -2.596,-13.946 -3.725,-13.946M-3.248,-14.946C-1.112,-14.946 0.601,-14.137 1.894,-12.515C2.991,-11.13 3.541,-9.539 3.541,-7.743C3.541,-6.481 3.238,-5.203 2.632,-3.91C2.027,-2.617 1.194,-1.641 0.132,-0.986C-0.932,-0.329 -2.114,0 -3.416,0C-5.541,0 -7.229,-0.848 -8.481,-2.541C-9.538,-3.967 -10.066,-5.567 -10.066,-7.344C-10.066,-8.636 -9.745,-9.922 -9.104,-11.2C-8.463,-12.476 -7.618,-13.421 -6.573,-14.031C-5.526,-14.641 -4.418,-14.946 -3.248,-14.946" style="fill:white;fill-rule:nonzero;"/>
        </g>
        <g transform="matrix(0.951738,0,0,0.951738,810.739,461.415)">
            <path d="M0,-19.842C-0.758,-19.842 -1.396,-19.539 -1.908,-18.935C-2.42,-18.329 -2.679,-17.401 -2.679,-16.148C-2.679,-14.528 -2.328,-13.269 -1.632,-12.377C-1.099,-11.7 -0.421,-11.361 0.399,-11.361C1.182,-11.361 1.821,-11.653 2.325,-12.238C2.826,-12.824 3.079,-13.742 3.079,-14.994C3.079,-16.625 2.725,-17.903 2.018,-18.826C1.495,-19.503 0.821,-19.842 0,-19.842M-2.831,-6.066C-3.313,-5.542 -3.677,-5.055 -3.925,-4.604C-4.171,-4.153 -4.293,-3.737 -4.293,-3.357C-4.293,-2.863 -3.996,-2.433 -3.4,-2.064C-2.376,-1.427 -0.892,-1.11 1.048,-1.11C2.894,-1.11 4.257,-1.435 5.135,-2.088C6.011,-2.739 6.451,-3.434 6.451,-4.172C6.451,-4.707 6.187,-5.086 5.666,-5.311C5.132,-5.537 4.073,-5.671 2.494,-5.712C0.187,-5.774 -1.592,-5.891 -2.831,-6.066M-2.679,-11.207C-3.54,-11.628 -4.2,-12.216 -4.664,-12.969C-5.124,-13.724 -5.356,-14.558 -5.356,-15.471C-5.356,-16.866 -4.829,-18.068 -3.777,-19.072C-2.726,-20.078 -1.38,-20.58 0.262,-20.58C1.604,-20.58 2.771,-20.253 3.756,-19.597L6.743,-19.597C7.184,-19.597 7.441,-19.583 7.512,-19.558C7.585,-19.532 7.636,-19.488 7.665,-19.427C7.728,-19.335 7.759,-19.17 7.759,-18.935C7.759,-18.668 7.731,-18.483 7.682,-18.381C7.651,-18.329 7.598,-18.288 7.521,-18.257C7.442,-18.226 7.184,-18.211 6.743,-18.211L4.91,-18.211C5.485,-17.472 5.772,-16.529 5.772,-15.378C5.772,-14.065 5.271,-12.942 4.266,-12.008C3.259,-11.073 1.91,-10.606 0.217,-10.606C-0.482,-10.606 -1.195,-10.709 -1.925,-10.915C-2.376,-10.525 -2.681,-10.184 -2.839,-9.891C-2.998,-9.598 -3.078,-9.349 -3.078,-9.144C-3.078,-8.971 -2.992,-8.8 -2.825,-8.637C-2.654,-8.472 -2.323,-8.355 -1.831,-8.282C-1.543,-8.241 -0.826,-8.205 0.325,-8.175C2.439,-8.123 3.808,-8.051 4.434,-7.959C5.39,-7.825 6.15,-7.472 6.72,-6.897C7.288,-6.322 7.575,-5.614 7.575,-4.772C7.575,-3.613 7.03,-2.526 5.942,-1.51C4.343,-0.012 2.254,0.738 -0.322,0.738C-2.303,0.738 -3.976,0.291 -5.341,-0.601C-6.11,-1.114 -6.496,-1.648 -6.496,-2.202C-6.496,-2.448 -6.439,-2.695 -6.326,-2.941C-6.15,-3.321 -5.792,-3.85 -5.247,-4.527C-5.177,-4.618 -4.652,-5.173 -3.677,-6.189C-4.213,-6.508 -4.589,-6.792 -4.809,-7.043C-5.031,-7.294 -5.14,-7.579 -5.14,-7.897C-5.14,-8.256 -4.993,-8.678 -4.702,-9.159C-4.409,-9.643 -3.734,-10.324 -2.679,-11.207" style="fill:white;fill-rule:nonzero;"/>
        </g>
        <g transform="matrix(0.951738,0,0,0.951738,823.014,455.642)">
            <path d="M0,-21.889C0.432,-21.889 0.8,-21.738 1.103,-21.435C1.405,-21.132 1.558,-20.766 1.558,-20.334C1.558,-19.904 1.405,-19.535 1.103,-19.226C0.8,-18.918 0.432,-18.764 0,-18.764C-0.429,-18.764 -0.799,-18.918 -1.106,-19.226C-1.415,-19.535 -1.567,-19.904 -1.567,-20.334C-1.567,-20.766 -1.417,-21.132 -1.115,-21.435C-0.811,-21.738 -0.438,-21.889 0,-21.889M1.279,-14.515L1.279,-3.187C1.279,-2.304 1.343,-1.717 1.473,-1.424C1.599,-1.131 1.789,-0.913 2.04,-0.771C2.294,-0.626 2.752,-0.555 3.42,-0.555L3.42,0L-3.431,0L-3.431,-0.555C-2.744,-0.555 -2.281,-0.622 -2.045,-0.754C-1.81,-0.888 -1.621,-1.11 -1.483,-1.417C-1.346,-1.725 -1.274,-2.315 -1.274,-3.187L-1.274,-8.62C-1.274,-10.149 -1.323,-11.14 -1.415,-11.591C-1.486,-11.919 -1.6,-12.148 -1.754,-12.277C-1.907,-12.404 -2.117,-12.469 -2.384,-12.469C-2.671,-12.469 -3.02,-12.391 -3.431,-12.238L-3.646,-12.792L0.601,-14.515L1.279,-14.515Z" style="fill:white;fill-rule:nonzero;"/>
        </g>
        <g transform="matrix(0.951738,0,0,0.951738,839.335,447.337)">
            <path d="M0,3.37C-0.38,5.227 -1.123,6.656 -2.231,7.656C-3.34,8.656 -4.566,9.158 -5.909,9.158C-7.512,9.158 -8.905,8.486 -10.097,7.141C-11.286,5.797 -11.883,3.98 -11.883,1.692C-11.883,-0.525 -11.223,-2.325 -9.904,-3.711C-8.585,-5.097 -7.003,-5.788 -5.156,-5.788C-3.771,-5.788 -2.632,-5.422 -1.739,-4.689C-0.845,-3.955 -0.399,-3.192 -0.399,-2.401C-0.399,-2.013 -0.525,-1.697 -0.777,-1.456C-1.029,-1.216 -1.38,-1.094 -1.831,-1.094C-2.437,-1.094 -2.893,-1.29 -3.201,-1.68C-3.375,-1.895 -3.493,-2.305 -3.548,-2.911C-3.604,-3.516 -3.813,-3.977 -4.171,-4.296C-4.529,-4.604 -5.027,-4.758 -5.665,-4.758C-6.69,-4.758 -7.516,-4.378 -8.143,-3.618C-8.974,-2.612 -9.388,-1.283 -9.388,0.369C-9.388,2.051 -8.977,3.536 -8.149,4.824C-7.325,6.112 -6.209,6.756 -4.803,6.756C-3.797,6.756 -2.893,6.412 -2.094,5.724C-1.527,5.253 -0.979,4.395 -0.446,3.154L0,3.37Z" style="fill:white;fill-rule:nonzero;"/>
        </g>
        <g transform="matrix(0.951738,0,0,0.951738,847.364,455.101)">
            <path d="M0,-12.946C-0.541,-12.946 -1.09,-12.785 -1.64,-12.462C-2.188,-12.138 -2.63,-11.571 -2.971,-10.76C-3.309,-9.95 -3.479,-8.908 -3.479,-7.635C-3.479,-5.583 -3.07,-3.813 -2.254,-2.325C-1.438,-0.838 -0.363,-0.094 0.971,-0.094C1.967,-0.094 2.786,-0.505 3.434,-1.325C4.079,-2.145 4.404,-3.556 4.404,-5.558C4.404,-8.061 3.865,-10.032 2.786,-11.469C2.056,-12.454 1.13,-12.946 0,-12.946M0.479,-13.946C2.612,-13.946 4.326,-13.136 5.618,-11.514C6.717,-10.13 7.267,-8.539 7.267,-6.743C7.267,-5.481 6.962,-4.203 6.359,-2.91C5.753,-1.617 4.918,-0.641 3.856,0.014C2.795,0.671 1.611,1 0.308,1C-1.814,1 -3.504,0.153 -4.755,-1.541C-5.812,-2.967 -6.34,-4.567 -6.34,-6.343C-6.34,-7.635 -6.021,-8.922 -5.38,-10.2C-4.738,-11.476 -3.896,-12.421 -2.849,-13.031C-1.799,-13.641 -0.692,-13.946 0.479,-13.946" style="fill:white;fill-rule:nonzero;"/>
        </g>
        <g transform="matrix(0.951738,0,0,0.951738,716.635,468.822)">
            <path d="M0,14.216L0,7.813C-0.054,7.197 -0.218,6.636 -0.489,6.131C-0.76,5.624 -1.12,5.242 -1.566,4.984C-2.015,4.725 -2.452,4.598 -2.876,4.598C-3.672,4.598 -4.382,4.955 -5.005,5.669C-5.829,6.611 -6.239,7.985 -6.239,9.795C-6.239,11.619 -5.842,13.02 -5.046,13.991C-4.251,14.965 -3.365,15.449 -2.388,15.449C-1.565,15.449 -0.769,15.039 0,14.216M0,15.165C-0.606,15.797 -1.199,16.253 -1.777,16.529C-2.356,16.804 -2.98,16.943 -3.649,16.943C-5.005,16.943 -6.19,16.375 -7.203,15.24C-8.216,14.105 -8.723,12.647 -8.723,10.863C-8.723,9.083 -8.162,7.452 -7.041,5.975C-5.92,4.495 -4.477,3.758 -2.715,3.758C-1.619,3.758 -0.714,4.105 0,4.8L0,2.509C0,1.089 -0.035,0.216 -0.103,-0.109C-0.17,-0.434 -0.276,-0.657 -0.42,-0.774C-0.565,-0.891 -0.745,-0.951 -0.963,-0.951C-1.199,-0.951 -1.51,-0.878 -1.898,-0.732L-2.077,-1.209L1.627,-2.727L2.237,-2.727L2.237,11.638C2.237,13.095 2.272,13.984 2.341,14.303C2.406,14.626 2.516,14.85 2.665,14.975C2.814,15.104 2.988,15.165 3.187,15.165C3.431,15.165 3.758,15.088 4.165,14.935L4.312,15.41L0.624,16.943L0,16.943L0,15.165Z" style="fill:white;fill-rule:nonzero;"/>
        </g>
        <g transform="matrix(0.951738,0,0,0.951738,723.492,480.881)">
            <path d="M0,-4.64L5.75,-4.64C5.705,-5.438 5.61,-5.997 5.466,-6.324C5.238,-6.829 4.903,-7.228 4.455,-7.516C4.008,-7.805 3.538,-7.951 3.051,-7.951C2.299,-7.951 1.628,-7.66 1.036,-7.077C0.444,-6.493 0.098,-5.681 0,-4.64M0,-3.854C-0.01,-2.009 0.437,-0.562 1.342,0.487C2.246,1.536 3.31,2.061 4.53,2.061C5.343,2.061 6.051,1.839 6.652,1.389C7.255,0.942 7.758,0.175 8.165,-0.911L8.584,-0.64C8.396,0.601 7.844,1.729 6.93,2.746C6.017,3.763 4.873,4.272 3.498,4.272C2.008,4.272 0.73,3.691 -0.334,2.529C-1.397,1.365 -1.93,-0.196 -1.93,-2.157C-1.93,-4.283 -1.382,-5.94 -0.293,-7.13C0.798,-8.32 2.166,-8.912 3.812,-8.912C5.203,-8.912 6.347,-8.454 7.242,-7.536C8.138,-6.619 8.584,-5.392 8.584,-3.854L0,-3.854Z" style="fill:white;fill-rule:nonzero;"/>
        </g>
        <g transform="matrix(0.951738,0,0,0.951738,754.942,484.986)">
            <path d="M0,-19.236L0.42,-12.982L0,-12.982C-0.561,-14.855 -1.361,-16.202 -2.401,-17.025C-3.44,-17.847 -4.688,-18.259 -6.146,-18.259C-7.366,-18.259 -8.469,-17.95 -9.455,-17.33C-10.439,-16.711 -11.217,-15.723 -11.781,-14.365C-12.348,-13.009 -12.63,-11.323 -12.63,-9.307C-12.63,-7.642 -12.364,-6.2 -11.83,-4.979C-11.295,-3.759 -10.494,-2.821 -9.422,-2.171C-8.35,-1.519 -7.128,-1.194 -5.752,-1.194C-4.558,-1.194 -3.505,-1.45 -2.59,-1.961C-1.679,-2.471 -0.674,-3.486 0.42,-5.007L0.842,-4.734C-0.08,-3.097 -1.158,-1.9 -2.388,-1.139C-3.617,-0.38 -5.078,0 -6.768,0C-9.817,0 -12.178,-1.131 -13.851,-3.391C-15.099,-5.074 -15.722,-7.054 -15.722,-9.334C-15.722,-11.17 -15.31,-12.856 -14.486,-14.394C-13.665,-15.931 -12.532,-17.122 -11.09,-17.968C-9.647,-18.814 -8.07,-19.236 -6.362,-19.236C-5.033,-19.236 -3.721,-18.911 -2.429,-18.259C-2.05,-18.06 -1.777,-17.96 -1.613,-17.96C-1.37,-17.96 -1.158,-18.047 -0.977,-18.218C-0.741,-18.463 -0.574,-18.801 -0.476,-19.236L0,-19.236Z" style="fill:white;fill-rule:nonzero;"/>
        </g>
        <g transform="matrix(0.951738,0,0,0.951738,762.868,484.11)">
            <path d="M0,-11.413C-0.479,-11.413 -0.959,-11.269 -1.445,-10.984C-1.928,-10.7 -2.318,-10.199 -2.616,-9.486C-2.915,-8.77 -3.065,-7.853 -3.065,-6.731C-3.065,-4.923 -2.705,-3.364 -1.988,-2.053C-1.269,-0.74 -0.319,-0.085 0.856,-0.085C1.732,-0.085 2.456,-0.446 3.025,-1.169C3.595,-1.893 3.881,-3.137 3.881,-4.9C3.881,-7.106 3.405,-8.844 2.456,-10.11C1.813,-10.976 0.995,-11.413 0,-11.413M0.421,-12.292C2.301,-12.292 3.813,-11.578 4.953,-10.15C5.92,-8.93 6.404,-7.527 6.404,-5.946C6.404,-4.833 6.138,-3.706 5.603,-2.566C5.069,-1.427 4.333,-0.567 3.398,0.012C2.462,0.59 1.421,0.879 0.271,0.879C-1.6,0.879 -3.089,0.133 -4.19,-1.358C-5.122,-2.617 -5.589,-4.027 -5.589,-5.592C-5.589,-6.731 -5.306,-7.864 -4.741,-8.99C-4.174,-10.117 -3.432,-10.947 -2.51,-11.486C-1.586,-12.025 -0.609,-12.292 0.421,-12.292" style="fill:white;fill-rule:nonzero;"/>
        </g>
        <g transform="matrix(0.951738,0,0,0.951738,778.348,484.947)">
            <path d="M0,-13.171L0,-8.94L-0.447,-8.94C-0.789,-10.27 -1.232,-11.174 -1.769,-11.654C-2.307,-12.133 -2.992,-12.372 -3.823,-12.372C-4.457,-12.372 -4.969,-12.204 -5.357,-11.869C-5.746,-11.536 -5.94,-11.166 -5.94,-10.757C-5.94,-10.251 -5.797,-9.817 -5.506,-9.455C-5.227,-9.084 -4.656,-8.692 -3.796,-8.275L-1.815,-7.314C0.02,-6.416 0.937,-5.235 0.937,-3.773C0.937,-2.641 0.51,-1.73 -0.345,-1.038C-1.199,-0.346 -2.156,0 -3.215,0C-3.973,0 -4.841,-0.136 -5.819,-0.407C-6.117,-0.498 -6.361,-0.544 -6.552,-0.544C-6.759,-0.544 -6.922,-0.427 -7.039,-0.191L-7.486,-0.191L-7.486,-4.626L-7.039,-4.626C-6.785,-3.359 -6.302,-2.406 -5.587,-1.763C-4.873,-1.121 -4.074,-0.801 -3.186,-0.801C-2.562,-0.801 -2.056,-0.983 -1.659,-1.35C-1.268,-1.715 -1.069,-2.157 -1.069,-2.673C-1.069,-3.297 -1.29,-3.821 -1.727,-4.247C-2.168,-4.671 -3.042,-5.208 -4.353,-5.861C-5.664,-6.512 -6.522,-7.099 -6.932,-7.624C-7.339,-8.14 -7.54,-8.79 -7.54,-9.576C-7.54,-10.599 -7.191,-11.454 -6.49,-12.143C-5.79,-12.828 -4.882,-13.171 -3.77,-13.171C-3.282,-13.171 -2.689,-13.069 -1.993,-12.86C-1.53,-12.725 -1.225,-12.658 -1.069,-12.658C-0.926,-12.658 -0.813,-12.689 -0.732,-12.752C-0.649,-12.816 -0.556,-12.955 -0.447,-13.171L0,-13.171Z" style="fill:white;fill-rule:nonzero;"/>
        </g>
        <g transform="matrix(0.951738,0,0,0.951738,784.431,484.78)">
            <path d="M0,-16.713L0,-12.629L2.903,-12.629L2.903,-11.68L0,-11.68L0,-3.623C0,-2.817 0.113,-2.275 0.347,-1.994C0.575,-1.714 0.872,-1.574 1.234,-1.574C1.533,-1.574 1.822,-1.667 2.101,-1.853C2.383,-2.038 2.601,-2.313 2.753,-2.673L3.282,-2.673C2.965,-1.787 2.518,-1.118 1.94,-0.673C1.36,-0.226 0.763,0 0.148,0C-0.268,0 -0.673,-0.116 -1.071,-0.346C-1.47,-0.577 -1.764,-0.907 -1.953,-1.338C-2.144,-1.766 -2.238,-2.429 -2.238,-3.324L-2.238,-11.68L-4.206,-11.68L-4.206,-12.129C-3.708,-12.327 -3.199,-12.665 -2.681,-13.139C-2.161,-13.614 -1.696,-14.178 -1.289,-14.827C-1.082,-15.171 -0.791,-15.8 -0.421,-16.713L0,-16.713Z" style="fill:white;fill-rule:nonzero;"/>
        </g>
        <g transform="matrix(0.951738,0,0,0.951738,795.044,475.202)">
            <path d="M0,7.185L0,2.452C-1.366,2.995 -2.249,3.377 -2.646,3.604C-3.359,4.002 -3.871,4.419 -4.18,4.852C-4.485,5.287 -4.64,5.762 -4.64,6.279C-4.64,6.928 -4.445,7.469 -4.058,7.898C-3.668,8.329 -3.221,8.541 -2.715,8.541C-2.026,8.541 -1.123,8.09 0,7.185M0,8.069C-1.275,9.054 -2.076,9.623 -2.402,9.778C-2.889,10.005 -3.409,10.117 -3.962,10.117C-4.822,10.117 -5.53,9.824 -6.087,9.234C-6.643,8.646 -6.919,7.874 -6.919,6.915C-6.919,6.309 -6.783,5.785 -6.514,5.34C-6.143,4.725 -5.498,4.147 -4.579,3.604C-3.662,3.062 -2.135,2.401 0,1.624L0,1.135C0,-0.103 -0.197,-0.953 -0.592,-1.416C-0.983,-1.876 -1.557,-2.106 -2.308,-2.106C-2.877,-2.106 -3.329,-1.953 -3.664,-1.644C-4.007,-1.339 -4.18,-0.985 -4.18,-0.586L-4.152,0.2C-4.152,0.617 -4.259,0.937 -4.471,1.162C-4.684,1.389 -4.962,1.501 -5.306,1.501C-5.639,1.501 -5.913,1.385 -6.126,1.149C-6.34,0.914 -6.444,0.593 -6.444,0.186C-6.444,-0.592 -6.047,-1.307 -5.251,-1.957C-4.455,-2.609 -3.338,-2.932 -1.9,-2.932C-0.797,-2.932 0.107,-2.748 0.813,-2.377C1.346,-2.097 1.741,-1.659 1.993,-1.061C2.155,-0.672 2.237,0.123 2.237,1.327L2.237,5.545C2.237,6.729 2.26,7.455 2.305,7.722C2.352,7.99 2.425,8.167 2.528,8.258C2.633,8.349 2.752,8.392 2.889,8.392C3.033,8.392 3.161,8.363 3.269,8.299C3.459,8.182 3.825,7.851 4.368,7.307L4.368,8.069C3.354,9.425 2.387,10.103 1.464,10.103C1.021,10.103 0.668,9.95 0.406,9.642C0.145,9.334 0.007,8.81 0,8.069" style="fill:white;fill-rule:nonzero;"/>
        </g>
        <g transform="matrix(0.951738,0,0,0.951738,811.299,476.079)">
            <path d="M0,-0.518C0.171,-0.518 0.32,-0.516 0.447,-0.51C0.574,-0.506 0.679,-0.504 0.76,-0.504C2.513,-0.504 3.835,-0.883 4.729,-1.644C5.618,-2.403 6.062,-3.371 6.062,-4.546C6.062,-5.695 5.705,-6.628 4.984,-7.347C4.266,-8.067 3.313,-8.426 2.128,-8.426C1.604,-8.426 0.895,-8.339 0,-8.167L0,-0.518ZM13.063,8.938L8.152,8.938L1.927,0.337C1.465,0.355 1.089,0.365 0.801,0.365C0.683,0.365 0.555,0.362 0.419,0.358C0.283,0.353 0.143,0.346 0,0.337L0,5.682C0,6.841 0.126,7.56 0.378,7.839C0.723,8.238 1.238,8.437 1.927,8.437L2.644,8.437L2.644,8.938L-5.238,8.938L-5.238,8.437L-4.546,8.437C-3.767,8.437 -3.213,8.183 -2.877,7.677C-2.688,7.397 -2.594,6.731 -2.594,5.682L-2.594,-6.202C-2.594,-7.359 -2.719,-8.079 -2.973,-8.357C-3.325,-8.756 -3.849,-8.955 -4.546,-8.955L-5.238,-8.955L-5.238,-9.456L1.465,-9.456C3.417,-9.456 4.858,-9.314 5.784,-9.03C6.713,-8.745 7.499,-8.22 8.146,-7.455C8.792,-6.692 9.115,-5.782 9.115,-4.722C9.115,-3.593 8.745,-2.611 8.01,-1.779C7.272,-0.947 6.131,-0.359 4.583,-0.015L8.383,5.261C9.253,6.473 9.999,7.278 10.619,7.677C11.245,8.076 12.059,8.327 13.063,8.437L13.063,8.938Z" style="fill:white;fill-rule:nonzero;"/>
        </g>
        <g transform="matrix(0.951738,0,0,0.951738,827.334,484.585)">
            <path d="M0,-19.29C0.38,-19.29 0.702,-19.156 0.969,-18.89C1.235,-18.624 1.368,-18.299 1.368,-17.92C1.368,-17.539 1.235,-17.215 0.969,-16.943C0.702,-16.672 0.38,-16.537 0,-16.537C-0.38,-16.537 -0.708,-16.672 -0.978,-16.943C-1.249,-17.215 -1.383,-17.539 -1.383,-17.92C-1.383,-18.299 -1.251,-18.624 -0.983,-18.89C-0.716,-19.156 -0.391,-19.29 0,-19.29M1.126,-12.791L1.126,-2.808C1.126,-2.031 1.181,-1.513 1.294,-1.255C1.408,-0.997 1.575,-0.805 1.797,-0.678C2.019,-0.552 2.424,-0.487 3.011,-0.487L3.011,0L-3.025,0L-3.025,-0.487C-2.42,-0.487 -2.014,-0.547 -1.805,-0.664C-1.597,-0.782 -1.432,-0.977 -1.31,-1.248C-1.188,-1.52 -1.126,-2.039 -1.126,-2.808L-1.126,-7.597C-1.126,-8.944 -1.167,-9.817 -1.249,-10.216C-1.311,-10.505 -1.412,-10.706 -1.547,-10.818C-1.683,-10.932 -1.867,-10.988 -2.104,-10.988C-2.356,-10.988 -2.664,-10.92 -3.025,-10.786L-3.216,-11.274L0.53,-12.791L1.126,-12.791Z" style="fill:white;fill-rule:nonzero;"/>
        </g>
        <g transform="matrix(0.951738,0,0,0.951738,841.716,477.268)">
            <path d="M0,2.967C-0.334,4.604 -0.989,5.864 -1.968,6.746C-2.942,7.627 -4.024,8.069 -5.21,8.069C-6.618,8.069 -7.849,7.477 -8.899,6.291C-9.948,5.107 -10.473,3.506 -10.473,1.488C-10.473,-0.465 -9.892,-2.052 -8.73,-3.272C-7.567,-4.493 -6.172,-5.102 -4.543,-5.102C-3.322,-5.102 -2.32,-4.781 -1.533,-4.134C-0.745,-3.488 -0.352,-2.816 -0.352,-2.119C-0.352,-1.775 -0.464,-1.498 -0.685,-1.284C-0.907,-1.073 -1.217,-0.968 -1.614,-0.968C-2.146,-0.968 -2.551,-1.137 -2.82,-1.481C-2.976,-1.673 -3.076,-2.033 -3.127,-2.566C-3.177,-3.101 -3.359,-3.51 -3.675,-3.787C-3.992,-4.059 -4.431,-4.196 -4.992,-4.196C-5.896,-4.196 -6.625,-3.86 -7.176,-3.191C-7.908,-2.305 -8.273,-1.133 -8.273,0.322C-8.273,1.805 -7.911,3.114 -7.183,4.25C-6.455,5.385 -5.472,5.952 -4.233,5.952C-3.346,5.952 -2.551,5.65 -1.846,5.043C-1.347,4.628 -0.863,3.873 -0.392,2.779L0,2.967Z" style="fill:white;fill-rule:nonzero;"/>
        </g>
        <g transform="matrix(0.951738,0,0,0.951738,850.109,475.202)">
            <path d="M0,7.185L0,2.452C-1.365,2.995 -2.248,3.377 -2.646,3.604C-3.36,4.002 -3.871,4.419 -4.178,4.852C-4.485,5.287 -4.641,5.762 -4.641,6.279C-4.641,6.928 -4.444,7.469 -4.057,7.898C-3.668,8.329 -3.221,8.541 -2.713,8.541C-2.026,8.541 -1.122,8.09 0,7.185M0,8.069C-1.275,9.054 -2.077,9.623 -2.4,9.778C-2.89,10.005 -3.409,10.117 -3.963,10.117C-4.821,10.117 -5.528,9.824 -6.083,9.234C-6.641,8.646 -6.92,7.874 -6.92,6.915C-6.92,6.309 -6.784,5.785 -6.513,5.34C-6.141,4.725 -5.497,4.147 -4.579,3.604C-3.662,3.062 -2.135,2.401 0,1.624L0,1.135C0,-0.103 -0.197,-0.953 -0.591,-1.416C-0.982,-1.876 -1.556,-2.106 -2.306,-2.106C-2.875,-2.106 -3.329,-1.953 -3.663,-1.644C-4.007,-1.339 -4.178,-0.985 -4.178,-0.586L-4.152,0.2C-4.152,0.617 -4.26,0.937 -4.471,1.162C-4.682,1.389 -4.961,1.501 -5.304,1.501C-5.639,1.501 -5.914,1.385 -6.126,1.149C-6.337,0.914 -6.443,0.593 -6.443,0.186C-6.443,-0.592 -6.044,-1.307 -5.251,-1.957C-4.456,-2.609 -3.337,-2.932 -1.9,-2.932C-0.797,-2.932 0.108,-2.748 0.814,-2.377C1.347,-2.097 1.741,-1.659 1.993,-1.061C2.156,-0.672 2.239,0.123 2.239,1.327L2.239,5.545C2.239,6.729 2.261,7.455 2.306,7.722C2.351,7.99 2.425,8.167 2.53,8.258C2.634,8.349 2.754,8.392 2.889,8.392C3.032,8.392 3.161,8.363 3.269,8.299C3.459,8.182 3.825,7.851 4.368,7.307L4.368,8.069C3.356,9.425 2.388,10.103 1.464,10.103C1.022,10.103 0.67,9.95 0.405,9.642C0.145,9.334 0.008,8.81 0,8.069" style="fill:white;fill-rule:nonzero;"/>
        </g>
        <g transform="matrix(0.951738,0,0,0.951738,589.988,483.887)">
            <path d="M0,-50.414L0.558,-38.591L-0.855,-38.591C-1.129,-40.674 -1.5,-42.16 -1.971,-43.052C-2.74,-44.49 -3.762,-45.55 -5.038,-46.231C-6.315,-46.913 -7.993,-47.254 -10.076,-47.254L-17.178,-47.254L-17.178,-8.736C-17.178,-5.639 -16.842,-3.704 -16.173,-2.936C-15.232,-1.895 -13.782,-1.375 -11.823,-1.375L-10.076,-1.375L-10.076,0L-31.454,0L-31.454,-1.375L-29.669,-1.375C-27.538,-1.375 -26.026,-2.019 -25.133,-3.308C-24.588,-4.101 -24.316,-5.911 -24.316,-8.736L-24.316,-47.254L-30.376,-47.254C-32.731,-47.254 -34.404,-47.08 -35.395,-46.733C-36.685,-46.262 -37.788,-45.357 -38.704,-44.018C-39.621,-42.681 -40.167,-40.871 -40.34,-38.591L-41.753,-38.591L-41.158,-50.414L0,-50.414Z" style="fill:white;fill-rule:nonzero;"/>
        </g>
        <g transform="matrix(0.951738,0,0,0.951738,605.294,481.269)">
            <path d="M0,-44.912L0,-24.983L11.08,-24.983C13.954,-24.983 15.875,-25.418 16.842,-26.284C18.13,-27.425 18.85,-29.433 18.999,-32.308L20.374,-32.308L20.374,-14.76L18.999,-14.76C18.651,-17.213 18.304,-18.786 17.958,-19.48C17.511,-20.349 16.779,-21.029 15.764,-21.525C14.748,-22.021 13.186,-22.268 11.08,-22.268L0,-22.268L0,-5.65C0,-3.42 0.098,-2.062 0.297,-1.58C0.496,-1.097 0.842,-0.713 1.338,-0.428C1.833,-0.141 2.775,-0 4.164,-0L12.715,-0C15.565,-0 17.635,-0.197 18.924,-0.595C20.213,-0.991 21.452,-1.771 22.642,-2.936C24.179,-4.473 25.752,-6.79 27.364,-9.89L28.851,-9.89L24.501,2.751L-14.352,2.751L-14.352,1.376L-12.567,1.376C-11.378,1.376 -10.25,1.092 -9.184,0.522C-8.391,0.124 -7.851,-0.471 -7.567,-1.263C-7.282,-2.056 -7.138,-3.681 -7.138,-6.133L-7.138,-38.889C-7.138,-42.086 -7.462,-44.057 -8.106,-44.801C-8.998,-45.791 -10.485,-46.287 -12.567,-46.287L-14.352,-46.287L-14.352,-47.663L24.501,-47.663L25.059,-36.62L23.608,-36.62C23.087,-39.272 22.512,-41.096 21.88,-42.086C21.248,-43.078 20.312,-43.834 19.073,-44.354C18.082,-44.725 16.333,-44.912 13.831,-44.912L0,-44.912Z" style="fill:white;fill-rule:nonzero;"/>
        </g>
        <g transform="matrix(0.951738,0,0,0.951738,673.697,484.986)">
            <path d="M0,-52.721L1.153,-35.581L0,-35.581C-1.538,-40.712 -3.73,-44.406 -6.581,-46.661C-9.432,-48.916 -12.852,-50.043 -16.842,-50.043C-20.188,-50.043 -23.213,-49.196 -25.914,-47.497C-28.616,-45.8 -30.742,-43.092 -32.291,-39.373C-33.839,-35.656 -34.615,-31.033 -34.615,-25.506C-34.615,-20.946 -33.883,-16.992 -32.42,-13.645C-30.958,-10.299 -28.758,-7.735 -25.821,-5.95C-22.884,-4.164 -19.531,-3.273 -15.764,-3.273C-12.492,-3.273 -9.604,-3.972 -7.102,-5.373C-4.598,-6.774 -1.847,-9.556 1.153,-13.72L2.305,-12.977C-0.223,-8.491 -3.173,-5.205 -6.543,-3.124C-9.915,-1.043 -13.917,0 -18.552,0C-26.905,0 -33.375,-3.1 -37.96,-9.296C-41.381,-13.907 -43.091,-19.334 -43.091,-25.58C-43.091,-30.612 -41.963,-35.235 -39.707,-39.449C-37.452,-43.661 -34.348,-46.927 -30.394,-49.245C-26.44,-51.562 -22.122,-52.721 -17.437,-52.721C-13.793,-52.721 -10.2,-51.829 -6.656,-50.043C-5.614,-49.498 -4.871,-49.227 -4.424,-49.227C-3.755,-49.227 -3.173,-49.461 -2.677,-49.932C-2.033,-50.601 -1.575,-51.532 -1.301,-52.721L0,-52.721Z" style="fill:white;fill-rule:nonzero;"/>
        </g>
    </g>
    <g transform="matrix(0.470445,0,0,0.355829,296.544,-592.018)">
        <path d="M821.165,1671.02L821.165,1829.04C821.165,1831.88 819.421,1834.18 817.273,1834.18L46.514,1834.18C44.366,1834.18 42.622,1831.88 42.622,1829.04L42.622,1671.02C42.622,1668.18 44.366,1665.88 46.514,1665.88L817.273,1665.88C819.421,1665.88 821.165,1668.18 821.165,1671.02Z" style="fill:rgb(22,27,34);stroke:rgb(22,27,34);stroke-width:3.6px;"/>
    </g>
</svg>
